<svg width="168" height="169" viewBox="0 0 168 169" fill="none" xmlns="http://www.w3.org/2000/svg"><path d="M64.3503 67.0732L69.9531 67.0732L69.9531 61.4704L64.3503 61.4704L64.3503 67.0732Z" fill="#FBC104"></path><path d="M19.5837 89.4463L25.1865 89.4463L25.1865 83.8434L19.5837 83.8434L19.5837 89.4463Z" fill="#FBC104"></path><path d="M41.9577 89.4463L47.5605 89.4463L47.5605 83.8434L41.9577 83.8434L41.9577 89.4463Z" fill="#FBC104"></path><path d="M25.1725 95.0547L30.7754 95.0547L30.7754 89.4518L25.1725 89.4518L25.1725 95.0547Z" fill="#F39416"></path><path d="M19.5837 106.251L25.1865 106.251L25.1865 100.648L19.5837 100.648L19.5837 106.251Z" fill="#F39416"></path><path d="M25.1725 128.624L30.7754 128.624L30.7754 123.021L25.1725 123.021L25.1725 128.624Z" fill="#F39416"></path><path d="M41.9759 128.632H36.373V134.215H41.9759H47.5593V128.632H41.9759Z" fill="#F39416"></path><path d="M47.5641 72.6621L53.167 72.6621L53.167 67.0593L47.5641 67.0593L47.5641 72.6621Z" fill="white"></path><path d="M53.153 78.2705L58.7559 78.2705L58.7559 72.6677L53.153 72.6677L53.153 78.2705Z" fill="white"></path><path d="M36.3724 78.2637H30.7695V83.8665H36.3724H41.9752V78.2637H36.3724Z" fill="#E73E3C"></path><path d="M36.3728 83.8672H30.7699H25.1865V89.4506H30.7699H36.3728H41.9756V83.8672H36.3728Z" fill="#C42628"></path><path d="M19.5837 72.6621L25.1865 72.6621L25.1865 67.0593L19.5837 67.0593L19.5837 72.6621Z" fill="white"></path><path d="M25.1725 78.2705L30.7754 78.2705L30.7754 72.6677L25.1725 72.6677L25.1725 78.2705Z" fill="white"></path><path d="M64.3503 95.0547L69.9531 95.0547L69.9531 89.4518L64.3503 89.4518L64.3503 95.0547Z" fill="#F39416"></path><path d="M58.7419 100.643L64.3447 100.643L64.3447 95.0397L58.7419 95.0397L58.7419 100.643Z" fill="#F39416"></path><path d="M109.115 111.84L114.718 111.84L114.718 106.237L109.115 106.237L109.115 111.84Z" fill="#F39416"></path><path d="M64.3503 123.035L69.9531 123.035L69.9531 117.432L64.3503 117.432L64.3503 123.035Z" fill="#434343"></path><path d="M69.9382 117.427L75.541 117.427L75.541 111.824L69.9382 111.824L69.9382 117.427Z" fill="#F39416"></path><path d="M64.3474 128.63H58.764V123.027V117.425H53.1612V111.841H47.5583V106.238V100.635H53.1612H58.764V95.0521H53.1612H47.5583V100.635H41.9749V95.0521V89.4492H36.3721H30.7692V95.0521H25.1858V100.635V106.238H19.583V111.841V117.425V123.027H25.1858H30.7692V128.63H36.3721H41.9749H47.5583V134.214H53.1612H58.764H64.3474H69.9502H75.5336V128.63H69.9502H64.3474Z" fill="#FBBE06"></path><path d="M47.5583 55.8715H53.1612H58.764V50.2881H53.1612H47.5583H41.9749H36.3721V55.8715H41.9749H47.5583Z" fill="#FBBE06"></path><path d="M109.111 111.841V106.238H103.528H97.9248V111.841H103.528V117.425H109.111H114.714V111.841H109.111Z" fill="#FBBE06"></path><path d="M69.9505 106.238H64.3477V111.841H69.9505V106.238Z" fill="#FBBE06"></path><path d="M92.3234 111.842H97.9262V106.239V100.636H92.3234V95.0531H86.74V89.4502H81.1371H75.5343H69.9509V95.0531H64.3481V100.636H58.7647H53.1618H47.559V95.0531H53.1618H58.7647H64.3481V89.4502H69.9509V83.8668V78.264V72.6611H64.3481V78.264H58.7647V83.8668H53.1618H47.559V89.4502H41.9756V95.0531V100.636H47.559V106.239V111.842H53.1618V117.426H58.7647H64.3481V111.842V106.239H69.9509V111.842H75.5343V117.426H81.1371H86.74V111.842H92.3234Z" fill="#FBE93F"></path><path d="M103.529 117.425V111.842H97.9265V117.425H92.3236H86.7402V123.028H81.1374H75.5346H69.9512V128.631H75.5346V134.214H81.1374H86.7402V128.631H92.3236H97.9265H103.529V123.028H109.113V117.425H103.529Z" fill="#FBE93F"></path><path d="M64.3481 61.4743V55.8715H58.7647H53.1618H47.559H41.9756H36.3728V50.2881H30.7699V55.8715H25.1865V61.4743V67.0772H30.7699V72.6606H36.3728H41.9756V67.0772H47.559H53.1618H58.7647V72.6606H64.3481V67.0772V61.4743Z" fill="#FBE93F"></path><path d="M137.107 67.0781H131.504V72.681H137.107V67.0781Z" fill="#B4D6EF"></path><path d="M137.107 55.8721H131.504V61.4749H137.107V55.8721Z" fill="#B4D6EF"></path><path d="M131.504 72.6611H125.901V78.264H131.504V72.6611Z" fill="#B4D6EF"></path><path d="M137.107 72.6602H131.504V78.263H137.107V72.6602Z" fill="white"></path><path d="M137.087 50.2891V55.8725V61.4753V67.0781V72.6615H142.69V67.0781V61.4753V55.8725V50.2891H137.087Z" fill="white"></path><path d="M137.107 44.6855H131.504V50.2884H137.107V44.6855Z" fill="white"></path><path d="M125.901 44.685V39.1016H120.318V44.685H114.715V50.2878H109.112V55.8712V61.474V67.0769V72.6603H114.715V78.2631H120.318H125.901V72.6603H131.504V67.0769V61.474V55.8712V50.2878V44.685H125.901Z" fill="#A7CAEA"></path><path d="M131.504 39.1016H125.901V44.7044H131.504V39.1016Z" fill="#B4D6EF"></path><path d="M137.107 39.1016H131.504V44.7044H137.107V39.1016Z" fill="#B4D6EF"></path><path d="M137.107 61.4746H131.504V67.0775H137.107V61.4746Z" fill="#BEDDF4"></path><path d="M137.107 50.2891H131.504V55.8919H137.107V50.2891Z" fill="#BEDDF4"></path><path d="M142.69 72.6602H137.087V78.263H142.69V72.6602Z" fill="#BEDDF4"></path><path d="M142.69 44.6855H137.087V50.2884H142.69V44.6855Z" fill="#BEDDF4"></path><path d="M142.69 50.2891V55.8725V61.4753V67.0781V72.6615H148.293V67.0781V61.4753V55.8725V50.2891H142.69Z" fill="#BEDDF4"></path><path d="M109.113 61.4743V55.8715V50.2881H103.529V55.8715V61.4743V67.0772V72.6606H109.113V67.0772V61.4743Z" fill="#8BAACC"></path><path d="M114.715 72.6611H109.112V78.264H114.715V72.6611Z" fill="#8BAACC"></path><path d="M131.505 78.2627H125.902H120.319H114.716V83.8655H120.319H125.902H131.505H137.088V78.2627H131.505Z" fill="#8BAACC"></path><path d="M114.715 44.6846H109.112V50.2874H114.715V44.6846Z" fill="#8BAACC"></path><path d="M120.319 39.1016H114.716V44.7044H120.319V39.1016Z" fill="#8BAACC"></path><path d="M109.132 78.2637H103.529V83.8665H109.132V78.2637Z" fill="#434343"></path><path d="M103.53 83.8672H97.9268V89.47H103.53V83.8672Z" fill="#434343"></path><path d="M97.9261 89.4502H92.3232V95.053H97.9261V89.4502Z" fill="#434343"></path><path d="M64.3675 50.2891H58.7646V55.8919H64.3675V50.2891Z" fill="#2C2C2C"></path><path d="M69.9505 55.873H64.3477V61.4759H69.9505V55.873Z" fill="#2C2C2C"></path><path d="M64.3477 67.0775V72.6608H69.9505V78.2637V83.8665V89.4499H75.5339H81.1367H86.7396V83.8665H81.1367H75.5339V78.2637V72.6608V67.0775V61.4746H69.9505V67.0775H64.3477Z" fill="#2C2C2C"></path><path d="M64.3675 72.6611H58.7646V78.264H64.3675V72.6611Z" fill="#2C2C2C"></path><path d="M58.764 67.0781H53.1611V72.681H58.764V67.0781Z" fill="#2C2C2C"></path><path d="M53.1615 72.6615H47.5586V67.0781H41.9752V72.6615H36.3724H30.7695V78.2644H36.3724H41.9752V83.8672H47.5586H53.1615H58.7643V78.2644H53.1615V72.6615Z" fill="#2C2C2C"></path><path d="M30.7894 67.0781H25.1865V72.681H30.7894V67.0781Z" fill="#2C2C2C"></path><path d="M25.1862 83.8672H30.7696V78.2644H25.1862V72.6615H19.5834V67.0781H14V72.6615V78.2644V83.8672V89.4506H19.5834V83.8672H25.1862Z" fill="#2C2C2C"></path><path d="M92.3431 89.4502H86.7402V95.053H92.3431V89.4502Z" fill="#2C2C2C"></path><path d="M97.9261 95.0537H92.3232V100.657H97.9261V95.0537Z" fill="#2C2C2C"></path><path d="M103.53 106.24H109.113H114.716V100.637H109.113H103.53H97.9268V106.24H103.53Z" fill="#2C2C2C"></path><path d="M114.715 111.843V117.426H120.318V111.843V106.24H114.715V111.843Z" fill="#2C2C2C"></path><path d="M114.714 117.427H109.111V123.03H114.714V117.427Z" fill="#2C2C2C"></path><path d="M86.7402 111.842V117.425H92.3236H97.9265V111.842H92.3236H86.7402Z" fill="#2C2C2C"></path><path d="M75.5336 117.427H69.9502V123.03H75.5336H81.1364H86.7393V117.427H81.1364H75.5336Z" fill="#2C2C2C"></path><path d="M109.131 123.028H103.528V128.631H109.131V123.028Z" fill="#2C2C2C"></path><path d="M92.3237 128.632H86.7403V134.215H81.1374H75.5346H69.9512H64.3484H58.765H53.1621H47.5593H41.9759H36.373V139.818H41.9759H47.5593H53.1621H58.765H64.3484H69.9512H75.5346H81.1374H86.7403H92.3237V134.215H97.9265H103.529V128.632H97.9265H92.3237Z" fill="#2C2C2C"></path><path d="M36.3724 50.2894H41.9752H47.5586H53.1615H58.7643V44.6865H53.1615H47.5586H41.9752H36.3724H30.7695V50.2894H36.3724Z" fill="#2C2C2C"></path><path d="M69.9505 111.842H64.3477V117.445H69.9505V111.842Z" fill="#2C2C2C"></path><path d="M64.348 117.427H58.7646V123.03V128.632H64.348H69.9509V123.03H64.348V117.427Z" fill="#2C2C2C"></path><path d="M30.7894 50.2891H25.1865V55.8919H30.7894V50.2891Z" fill="#2C2C2C"></path><path d="M25.1858 61.4759V55.873H19.583V61.4759V67.0787H25.1858V61.4759Z" fill="#2C2C2C"></path><path d="M25.1858 95.053V89.4502H19.583V95.053V100.636H25.1858V95.053Z" fill="#2C2C2C"></path><path d="M19.5834 111.842V106.24V100.637H14V106.24V111.842V117.426V123.029H19.5834V117.426V111.842Z" fill="#2C2C2C"></path><path d="M25.1858 123.028H19.583V128.631H25.1858V123.028Z" fill="#2C2C2C"></path><path d="M30.7699 128.632H25.1865V134.215H30.7699H36.3728V128.632H30.7699Z" fill="#2C2C2C"></path><path d="M103.53 78.2646H97.9268V83.8675H103.53V78.2646Z" fill="#2C2C2C"></path><path d="M109.131 72.6611H103.528V78.264H109.131V72.6611Z" fill="#2C2C2C"></path><path d="M114.714 78.2646H109.111V83.8675H114.714V78.2646Z" fill="#2C2C2C"></path><path d="M120.318 89.4506H125.901H131.504H137.087V83.8672H131.504H125.901H120.318H114.715V89.4506H120.318Z" fill="#2C2C2C"></path><path d="M142.691 78.2646H137.088V83.8675H142.691V78.2646Z" fill="#2C2C2C"></path><path d="M148.293 72.6611H142.69V78.264H148.293V72.6611Z" fill="#2C2C2C"></path><path d="M148.294 50.2891V67.0781V67.3505V72.6615H153.877V67.3505V67.0781V50.2891H148.294Z" fill="#2C2C2C"></path><path d="M148.293 44.6865H142.69V50.2894H148.293V44.6865Z" fill="#2C2C2C"></path><path d="M142.691 39.1035H137.088V44.7064H142.691V39.1035Z" fill="#2C2C2C"></path><path d="M131.504 33.5H125.901H120.318H114.715V39.1028H120.318H125.901H131.504H137.087V33.5H131.504Z" fill="#2C2C2C"></path><path d="M114.714 39.1035H109.111V44.7064H114.714V39.1035Z" fill="#2C2C2C"></path><path d="M97.9268 55.8725V61.4753V67.0781V72.6615H103.53V67.0781V61.4753V55.8725V50.2891H97.9268V55.8725Z" fill="#2C2C2C"></path><path d="M109.131 44.6865H103.528V50.2894H109.131V44.6865Z" fill="#2C2C2C"></path><path d="M97.9261 83.8672H92.3232V89.47H97.9261V83.8672Z" fill="#2C2C2C"></path><path d="M109.131 83.8672H103.528V89.47H109.131V83.8672Z" fill="#2C2C2C"></path><path d="M103.53 89.4502H97.9268V95.053H103.53V89.4502Z" fill="#2C2C2C"></path></svg>